<svg id="Layer_1" data-name="Layer 1" xmlns="http://www.w3.org/2000/svg" viewBox="0 0 344.43 146.14"><defs><style>.cls-1{fill:#fff;}</style></defs><title>cub_logo</title><path class="cls-1" d="M113.69,83.19c7.68,0,12.93,5.27,12.93,12.93,0,6.89-1.6,13.55-1.6,20.43,0,5.44,1.6,10.9,1.6,16.38,0,9.28-8.69,13.93-17,13.93-10.91,0-16-5.05-15.36-16,.21-5.86.4-8.71-3.64-13.34-4.44-4.86-10.92-6.27-17.19-6.27-25.26,0-28.09,25.26-28.09,44.87,0,20.81,2.83,43.66,29.1,43.66,5.47,0,11.52-.8,15.57-4.66,4.85-4.44,5-8.87,5-14.94-.2-4.66-.4-8.3,2.64-12.33,2.82-4.06,7.48-5.67,12.33-5.67,13.12,0,19,9.5,19,21.64,0,30.52-28.9,44.67-56,44.67-18.4,0-36.18-5.28-49.11-19.19C11.82,196.18,6.56,174.15,6.56,156.57c0-16,3.44-36.59,12.33-50.13,10.51-15.58,28.52-24,47.3-24,13.75,0,25.26,4.24,35,14.35-1-8.09,4.46-13.55,12.54-13.55Z" transform="translate(-6.56 -82.39)"/><path class="cls-1" d="M137.13,158.59c0-2.63.82-14.14-3.63-14.14-2,0-4.05,1.4-6.68,1.4-6.66,0-8.89-5.45-8.89-11.51,0-7.69,3.44-14,18.6-14,3.85.2,8.28,2,12.74,2,4.64,0,9.29-1.81,14.33-2,6.67,0,5.27,6.06,5.27,11.1V179.6c0,4.26,0,11.32,2.42,15.37a13.41,13.41,0,0,0,11.32,6.26,17.29,17.29,0,0,0,14.55-8.08c4.24-6.47,4.64-13.34,4.64-20.82V158.59c0-2.63.81-14.14-3.63-14.14-2,0-4,1.4-6.66,1.4-6.68,0-8.9-5.45-8.9-11.51,0-7.69,3.43-14,17.39-14,3.82.2,8.29,2,12.73,2,4.63,0,9.3-1.81,14.35-2,7.07,0,6.48,4.65,6.48,9.91v57.4c0,2.62-.82,14.14,3.62,14.14,2,0,4-1.41,6.67-1.41,6.68,0,8.91,5.46,8.91,11.51,0,7.7-3.45,14-11.94,14-5-.2-9.71-2-14.36-2-4.43,0-8.9,1.83-12.72,2-7.7-.2-7.27-6.47-7.27-10.73v-4c-7.89,11.13-22.45,17.19-36,17.19-10.3,0-22.23-3.85-28.3-12.74-5.85-8.69-5.05-20.61-5.05-30.72V158.59Z" transform="translate(-6.56 -82.39)"/><path class="cls-1" d="M247.27,123.83c0-2.63.82-14.35-3.64-14.35-2,0-4,1.41-6.66,1.41-6.68,0-8.89-5.47-8.89-11.53,0-7.89,3.44-14.14,11.94-14.14a63.11,63.11,0,0,1,16.14,2c5.88,1.56,11.94-2,17.8-2,2-.21,4.26,1.21,5.46,2.83,1.61,2,1.2,6.27,1.2,8.07V130.9c6.68-8.91,16.59-13.54,28.32-13.54,29.1,0,39.39,29.5,39.39,54.17,0,27.68-12.92,57-44.45,57-13.34,0-25.46-4.86-32.94-18.62l.59,5.47c0,6.46-5.45,9.52-11.31,9.52-10.72,0-13-5.07-13-14.77v-86.3Zm33.35,49.91c0,11.73,3.25,27.49,17.79,27.49,13.95,0,16.58-17.16,16.58-27.9,0-6.86-.62-14.33-4.05-20.21-2.62-4.43-7.06-8.47-12.31-8.47-13.55,0-18,18-18,29.09Z" transform="translate(-6.56 -82.39)"/><path class="cls-1" d="M338,221.18a6.49,6.49,0,1,1,6.5,6.51,6.5,6.5,0,0,1-6.5-6.51Zm12.2,0a5.7,5.7,0,1,0-5.7,5.72,5.7,5.7,0,0,0,5.7-5.72Zm-2.46,3.63H346.7l-2.07-3.34H343v3.34h-.87v-7.25h3.14a3.45,3.45,0,0,1,1.77.35,1.81,1.81,0,0,1,.82,1.59c0,1.4-1,1.93-2.29,2l2.19,3.34Zm-3.38-4.05c1,0,2.58.18,2.58-1.3,0-1.12-1-1.26-1.89-1.26H343v2.56Z" transform="translate(-6.56 -82.39)"/></svg>