<svg fill="#fff" width="100pt" height="100pt" viewBox="0 0 100 100" xmlns="http://www.w3.org/2000/svg"><path d="m93.75 43.75H6.25C2.7969 43.75.0 46.5469.0 50s2.7969 6.25 6.25 6.25h87.5c3.4531.0 6.25-2.7969 6.25-6.25s-2.7969-6.25-6.25-6.25z"/><path d="m93.75 72.918H6.25c-3.4531.0-6.25 2.7969-6.25 6.25s2.7969 6.25 6.25 6.25h87.5c3.4531.0 6.25-2.7969 6.25-6.25s-2.7969-6.25-6.25-6.25z"/><path d="m6.25 27.082h87.5c3.4531.0 6.25-2.7969 6.25-6.25s-2.7969-6.25-6.25-6.25H6.25c-3.4531.0-6.25 2.8008-6.25 6.25.0 3.4531 2.7969 6.25 6.25 6.25z"/></svg>