<?xml version="1.0" encoding="utf-8"?>
<!-- Generator: Adobe Illustrator 21.1.0, SVG Export Plug-In . SVG Version: 6.00 Build 0)  -->
<svg version="1.1" id="Layer_1" xmlns="http://www.w3.org/2000/svg" xmlns:xlink="http://www.w3.org/1999/xlink" x="0px" y="0px"
	 viewBox="0 0 30.6 86.4" style="enable-background:new 0 0 30.6 86.4;" xml:space="preserve">
<path d="M24.7,17.4L24.7,17.4h-5.3c3-1.5,5.1-4.6,5.1-8.2c0-5.1-4.1-9.2-9.2-9.2S6.1,4.1,6.1,9.2c0,3.6,2.1,6.7,5.1,8.2H5.9
	c-3.3,0-5.9,2.7-5.9,5.9v21.4c0,3.3,2.7,5.9,5.9,5.9h1.3v31.2c0,2.5,2,4.6,4.6,4.6h6.9c2.5,0,4.6-2,4.6-4.6V50.6h1.4
	c3.3,0,5.9-2.7,5.9-5.9V23.3C30.6,20,27.9,17.4,24.7,17.4z"/>
</svg>
