<svg id="Layer_1" xmlns="http://www.w3.org/2000/svg" xmlns:xlink="http://www.w3.org/1999/xlink" viewBox="0 0 49.1 49.1" style="enable-background:new 0 0 49.1 49.1;"><style>.st0{fill:#FFFFFF;}</style><title>link</title><path class="st0" d="M24.6.0C11 0 0 11 0 24.6s11 24.6 24.6 24.6 24.6-11 24.6-24.6C49.1 11 38.1.0 24.6.0c0 0 0 0 0 0zM15.6 36.8c-1.8.0-3.3-1.5-3.2-3.3.0-1.8 1.5-3.3 3.3-3.2 1.8.0 3.3 1.5 3.2 3.3C18.8 35.4 17.4 36.8 15.6 36.8c0 0 0 0 0 0zm8.1.0c0-3.1-1.2-6-3.4-8.1-2.1-2.2-5.1-3.4-8.1-3.4v-4.7c8.9.0 16.2 7.3 16.2 16.2.0.0.0.0.0.0H23.7zM32.1 36.8c0-10.9-8.8-19.8-19.7-19.8v-4.7c13.5.0 24.5 11 24.5 24.6L32.1 36.8z"/></svg>