<?xml version="1.0" encoding="utf-8"?>
<!-- Generator: Adobe Illustrator 22.0.1, SVG Export Plug-In . SVG Version: 6.00 Build 0)  -->
<svg version="1.1" id="Layer_1" xmlns="http://www.w3.org/2000/svg" xmlns:xlink="http://www.w3.org/1999/xlink" x="0px" y="0px"
	 viewBox="0 0 49.1 49.1" style="enable-background:new 0 0 49.1 49.1;" xml:space="preserve">
<style type="text/css">
	.st0{fill:#CECECE;}
</style>
<title>link</title>
<path class="st0" d="M36.7,31.9c0,0.3-0.1,0.6-0.3,0.8S35.9,33,35.6,33H13.5c-0.3,0-0.5-0.1-0.8-0.2c-0.2-0.2-0.3-0.5-0.3-0.7V17.7
	v-0.2l2.4,2l9,7.5c0.2,0.2,0.4,0.3,0.7,0.3c0.3,0,0.5-0.1,0.7-0.3l11.1-9.3l0.3-0.3v0.3L36.7,31.9z M35.4,16.1l-10.9,9l-10.9-9H35.4
	z M24.5,0.3c-6.4,0-12.6,2.6-17.2,7.1s-7,10.7-7,17.1s2.6,12.6,7.1,17.2s10.7,7.1,17.2,7.1s12.6-2.6,17.2-7.1s7.1-10.7,7.1-17.2
	s-2.6-12.6-7.1-17.2S31,0.3,24.5,0.3z"/>
</svg>
