<?xml version="1.0" encoding="utf-8"?>
<!-- Generator: Adobe Illustrator 22.0.1, SVG Export Plug-In . SVG Version: 6.00 Build 0)  -->
<svg version="1.1" id="Layer_1" xmlns="http://www.w3.org/2000/svg" xmlns:xlink="http://www.w3.org/1999/xlink" x="0px" y="0px"
	 viewBox="0 0 49.1 49.1" style="enable-background:new 0 0 49.1 49.1;" xml:space="preserve">
<style type="text/css">
	.st0{fill:#CECECE;}
</style>
<title>link</title>
<path class="st0" d="M24.6,0C11,0,0,11,0,24.6s11,24.6,24.6,24.6s24.6-11,24.6-24.6C49.1,11,38.1,0,24.6,0C24.6,0,24.6,0,24.6,0z
	 M15.6,36.8c-1.8,0-3.3-1.5-3.2-3.3c0-1.8,1.5-3.3,3.3-3.2c1.8,0,3.3,1.5,3.2,3.3C18.8,35.4,17.4,36.8,15.6,36.8
	C15.6,36.8,15.6,36.8,15.6,36.8z M23.7,36.8c0-3.1-1.2-6-3.4-8.1c-2.1-2.2-5.1-3.4-8.1-3.4v-4.7c8.9,0,16.2,7.3,16.2,16.2
	c0,0,0,0,0,0L23.7,36.8z M32.1,36.8c0-10.9-8.8-19.8-19.7-19.8v-4.7c13.5,0,24.5,11,24.5,24.6L32.1,36.8z"/>
</svg>
