<?xml version="1.0" encoding="utf-8"?>
<!-- Generator: Adobe Illustrator 22.0.1, SVG Export Plug-In . SVG Version: 6.00 Build 0)  -->
<svg version="1.1" id="Layer_1" xmlns="http://www.w3.org/2000/svg" xmlns:xlink="http://www.w3.org/1999/xlink" x="0px" y="0px"
	 viewBox="0 0 49.7 49.7" style="enable-background:new 0 0 49.7 49.7;" xml:space="preserve">
<style type="text/css">
	.st0{fill:#FFFFFF;}
</style>
<title>facebook</title>
<path class="st0" d="M24.8,0.6C11.4,0.6,0.6,11.4,0.6,24.8S11.4,49,24.8,49S49,38.2,49,24.8l0,0C48.9,11.4,38.1,0.6,24.8,0.6z
	 M29.7,24.8H26v13h-5.3v-13h-2.5v-4.6h2.5v-2.9c0-2.1,1-5.4,5.4-5.4h4v4.5h-2.9c-0.6,0-1.2,0.5-1.2,1.1c0,0.1,0,0.1,0,0.2v2.7h4.1
	L29.7,24.8z"/>
</svg>
