<?xml version="1.0" encoding="utf-8"?>
<!-- Generator: Adobe Illustrator 22.0.1, SVG Export Plug-In . SVG Version: 6.00 Build 0)  -->
<svg version="1.1" id="Layer_1" xmlns="http://www.w3.org/2000/svg" xmlns:xlink="http://www.w3.org/1999/xlink" x="0px" y="0px"
	 viewBox="0 0 49.7 49.7" style="enable-background:new 0 0 49.7 49.7;" xml:space="preserve">
<style type="text/css">
	.st0{fill:#CECECE;}
</style>
<title>facebook</title>
<path class="st0" d="M24.9,0.9c-13.3,0-24,10.7-24,24s10.7,24,24,24s24-10.7,24-24l0,0C48.8,11.6,38.1,0.9,24.9,0.9z M30.5,24.9
	h-3.7V38h-5.4V24.9h-2.6v-4.6h2.6v-3c0-2.1,1.1-5.5,5.5-5.5h4v4.4H28c-0.6,0-1.2,0.5-1.2,1.1c0,0.1,0,0.1,0,0.2v2.7h4L30.5,24.9z"/>
</svg>
