<?xml version="1.0" encoding="utf-8"?>
<!-- Generator: Adobe Illustrator 22.0.1, SVG Export Plug-In . SVG Version: 6.00 Build 0)  -->
<svg version="1.1" id="Layer_1" xmlns="http://www.w3.org/2000/svg" xmlns:xlink="http://www.w3.org/1999/xlink" x="0px" y="0px"
	 viewBox="0 0 50 50" style="enable-background:new 0 0 50 50;" xml:space="preserve">
<style type="text/css">
	.st0{fill:#CECECE;}
</style>
<path class="st0" d="M49,25c0,13.3-10.7,24-24,24S1,38.3,1,25S11.7,1,25,1S49,11.7,49,25z M40,30.2c0,0-1.7-1.1-2-2.6
	c0,0,2.8-2.7,2.8-7c0-4.3-3.5-11.1-12.6-11.1s-12.6,6.8-12.6,11.1s3.3,11.1,12.5,11.1c0,0,3.7,0.1,6.9-1.8c0,0,2,1.4,4.8,0.9
	C39.9,30.9,40.4,30.5,40,30.2z M11.5,37c0,0.8-1.2,1.8-1.7,2.2c-0.5,0.4,0.1,0.5,0.1,0.5c2,0.8,4-0.7,4-0.7c2.5,1.7,5.7,1.5,5.7,1.5
	c7.6,0.3,10-6.5,10-6.5C16,34.3,13.8,23.6,13.8,23.6C5.1,29.8,11.5,37,11.5,37z M24.8,19.4h-2.7v2.7h2.7V19.4z M29.6,19.4h-2.7v2.7
	h2.7V19.4z M34.3,19.4h-2.7v2.7h2.7V19.4z"/>
</svg>
