<?xml version="1.0" encoding="utf-8"?>
<!-- Generator: Adobe Illustrator 22.0.1, SVG Export Plug-In . SVG Version: 6.00 Build 0)  -->
<svg version="1.1" id="Layer_1" xmlns="http://www.w3.org/2000/svg" xmlns:xlink="http://www.w3.org/1999/xlink" x="0px" y="0px"
	 viewBox="0 0 50 50" style="enable-background:new 0 0 50 50;" xml:space="preserve">
<style type="text/css">
	.st0{fill:#CECECE;}
</style>
<path class="st0" d="M49,25c0,13.3-10.7,24-24,24S1,38.3,1,25S11.7,1,25,1S49,11.7,49,25z M37,33.5c2.9,3.4,2.3,0,2.3,0v-5
	c3.3,0,3.4-3.4,3.4-3.4s0-5.5,0-9s-3.4-3.4-3.4-3.4s-13.4,0-16.7,0s-3.4,3.3-3.4,3.3s0,5.8,0,9s3.4,3.4,3.4,3.4h10.1
	C32.8,28.6,34.1,30.1,37,33.5z M11.9,37.5c0,2.2,1.4,0.5,1.4,0.5l3.2-4c0,0,5.4,0,10.1,0s4.4-4.4,4.4-4.4s-2.9,0-8.2,0
	s-4.7-5.8-4.7-5.8l0-5.9c0,0-1.8,0-6,0s-4.2,4.2-4.2,4.2s0,5.1,0,8.3s4,3.7,4,3.7S11.9,35.3,11.9,37.5z"/>
</svg>
