<?xml version="1.0" encoding="utf-8"?>
<!-- Generator: Adobe Illustrator 22.0.1, SVG Export Plug-In . SVG Version: 6.00 Build 0)  -->
<svg version="1.1" id="Layer_1" xmlns="http://www.w3.org/2000/svg" xmlns:xlink="http://www.w3.org/1999/xlink" x="0px" y="0px"
	 viewBox="0 0 49.1 49.1" style="enable-background:new 0 0 49.1 49.1;" xml:space="preserve">
<style type="text/css">
	.st0{fill:#CECECE;}
</style>
<title>twitter</title>
<path class="st0" d="M24.6,0C11,0,0,11,0,24.6s11,24.6,24.6,24.6s24.6-11,24.6-24.6C49.1,11,38.1,0,24.6,0C24.6,0,24.6,0,24.6,0z
	 M34.3,19.6c0,0.2,0,0.4,0,0.6c0,7.9-6.4,14.3-14.3,14.3c-2.7,0-5.4-0.8-7.7-2.3c0.4,0,0.8,0.1,1.2,0.1c2.3,0,4.5-0.8,6.3-2.2
	c-2.2,0-4.1-1.4-4.7-3.5c0.3,0.1,0.7,0.1,1,0.1c0.4,0,0.9-0.1,1.3-0.2c-2.4-0.5-4.1-2.5-4.1-5v-0.1c0.7,0.4,1.5,0.6,2.3,0.6
	c-2.2-1.5-2.9-4.4-1.6-6.7c2.6,3.2,6.3,5.1,10.4,5.3c-0.1-0.4-0.1-0.8-0.1-1.1c-0.1-2.8,2.1-5,4.9-5.1c1.4,0,2.8,0.6,3.8,1.6
	c1.1-0.2,2.2-0.6,3.2-1.2c-0.4,1.2-1.2,2.2-2.2,2.8c1-0.1,2-0.4,2.9-0.8C36.2,17.9,35.3,18.8,34.3,19.6z"/>
</svg>
