<svg id="Layer_1" xmlns="http://www.w3.org/2000/svg" xmlns:xlink="http://www.w3.org/1999/xlink" viewBox="0 0 49.1 49.1" style="enable-background:new 0 0 49.1 49.1;"><style>.st0{fill:#FFFFFF;}</style><title>twitter</title><path class="st0" d="M24.6.0C11 0 0 11 0 24.6s11 24.6 24.6 24.6 24.6-11 24.6-24.6C49.1 11 38.1.0 24.6.0c0 0 0 0 0 0zM34.3 19.6c0 .2.0.4.0.6.0 7.9-6.4 14.3-14.3 14.3-2.7.0-5.4-.8-7.7-2.3.4.0.8.1 1.2.1 2.3.0 4.5-.8 6.3-2.2-2.2.0-4.1-1.4-4.7-3.5.3.1.7.1 1 .1.4.0.9-.1 1.3-.2-2.4-.5-4.1-2.5-4.1-5v-.1c.7.4 1.5.6 2.3.6-2.2-1.5-2.9-4.4-1.6-6.7 2.6 3.2 6.3 5.1 10.4 5.3-.1-.4-.1-.8-.1-1.1-.1-2.8 2.1-5 4.9-5.1 1.4.0 2.8.6 3.8 1.6 1.1-.2 2.2-.6 3.2-1.2-.4 1.2-1.2 2.2-2.2 2.8 1-.1 2-.4 2.9-.8C36.2 17.9 35.3 18.8 34.3 19.6z"/></svg>