<?xml version="1.0" encoding="utf-8"?>
<!-- Generator: Adobe Illustrator 22.0.1, SVG Export Plug-In . SVG Version: 6.00 Build 0)  -->
<svg version="1.1" id="Layer_1" xmlns="http://www.w3.org/2000/svg" xmlns:xlink="http://www.w3.org/1999/xlink" x="0px" y="0px"
	 viewBox="0 0 535.5 85" style="enable-background:new 0 0 535.5 85;" xml:space="preserve">
<title>startribune-logo-black</title>
<path d="M93.8,65l12.3-4.7c2.5,6.1,6.6,9.8,15.2,9.8c6.2,0,10.2-2.6,10.2-6.7c0-5.8-6.9-7.1-14.5-9c-9.7-2.4-20.9-5.7-20.9-19.5
	c0-10.7,9.2-18.2,24.4-18.2c13.3,0,21.1,5.9,24.6,15.5l-13.1,4c-1.8-5.2-5.9-7.6-11.7-7.6c-5.2,0-8.7,2.2-8.7,5.9
	c0,5.6,6.1,6.6,14.8,8.7c10.5,2.5,20.3,6.3,20.3,19.5c0,11.1-8.2,19.2-25.1,19.2C104.8,81.7,97.5,74.5,93.8,65z"/>
<path d="M152.1,66.5V43.8h-5.5v-9.9h5.6l0.9-14.4h13.2v14.4h9.6v9.9h-9.6v20.3c0,3.7,1.5,5.8,5,6.2c1.9,0.2,3.7,0.2,5.6,0v10.5
	c-2.8,0.4-5.7,0.6-8.5,0.6C157.7,81.3,152.1,76.3,152.1,66.5z"/>
<path d="M178.1,68.5c0-10.4,9.3-15.6,25.7-17.2c1.8-0.2,3.7-0.4,5.7-0.5c0-0.5-0.1-1.9-0.1-2.3c-0.3-3.7-2.5-5.9-7.6-5.9
	c-5.5,0-8.1,1.9-9.1,5.9l-13.4-1.2c2.3-9.3,10.1-14.2,23.9-14.2c15.8,0,20.3,6.8,20.3,16.9v21.6c0,2.7,0.2,7.4,1,9.2h-14
	c-0.6-0.9-0.8-3.4-0.8-6c-4.1,4.2-9,6.6-17.3,6.6C183.9,81.2,178.1,76.3,178.1,68.5z M209.5,66.4v-8.2c-1.7,0.1-3.3,0.3-5,0.6
	c-7.2,1.2-11.2,4-11.2,8.4c0,3.5,2.3,5.1,6,5.1C203.5,72.1,207.3,69.9,209.5,66.4z"/>
<path d="M228.8,33.9h14v9.8c2.2-5.6,7.7-10.7,14.6-10.7c1.1,0,2.3,0.1,3.4,0.3v11.8c-1.4-0.2-2.8-0.3-4.2-0.3
	c-5.4-0.1-10.5,2.9-12.9,7.8v28h-14.9V33.9z"/>
<path d="M266.1,29.7h-16.3V17.8h47.4v11.9H281v51.1h-14.9V29.7z"/>
<path d="M286.6,33.9h14v9.8c2.2-5.6,7.7-10.7,14.6-10.7c1.1,0,2.3,0.1,3.4,0.3v11.8c-1.4-0.2-2.8-0.3-4.2-0.3
	c-5.4-0.1-10.5,2.9-12.9,7.8v28h-14.8V33.9H286.6z"/>
<path d="M323.9,17.8h14.9v12.4h-14.9V17.8z M324,33.9h14.7v46.8H324V33.9z"/>
<path d="M355.3,73.8l-2.1,6.9h-8.9v-63h14.5v23.3c3-5.1,8.4-8.1,14.3-8c10.8,0,16.6,8.2,16.6,24.2c0,16.1-7.7,24.2-18.9,24.2
	C363.1,81.3,358.9,78.6,355.3,73.8z M374.6,57.7c0-9.9-2.1-14.6-7.7-14.6c-4.2,0-6.9,2.5-7.9,7v12.3c0,6.8,2.9,11.1,7.8,11.1
	C372.5,73.5,374.6,68.2,374.6,57.7z"/>
<path d="M392.4,66.6V33.9h14.7v31.9c0,4.4,1.9,6.1,5.8,6.1c3.5,0,6-2.4,7.6-5.5V33.9h14.7v46.8H421l0.1-6.7c-3.2,5-8.3,7.5-15,7.5
	C398.1,81.5,392.4,77,392.4,66.6z"/>
<path d="M439.9,33.9H454v7.8c2.7-3.9,7.2-8.6,15.1-8.6c9.6,0,13.5,5.8,13.5,14.7v33H468V48.2c0-2.9-1.5-5.1-5.1-5.1
	c-3.9,0-6.4,2.6-8.3,5.5v32.1H440V33.9H439.9z"/>
<path d="M485.2,58c0-15.1,11.1-24.9,24.2-24.9c14.6,0,23.2,9.6,23.6,24.2c0,0.9,0,1.9-0.1,2.8h-32.4c0.2,8.4,4.5,12.1,10.3,12.1
	c4.7,0,7.7-2.4,9.4-7l12.2,1.6c-3.1,8.9-10.9,14.7-22.9,14.7C495.4,81.5,485.2,72.2,485.2,58z M518.2,52.4
	c-0.5-6.3-3.2-10.2-8.7-10.2c-4.7,0-8.5,3.8-8.9,10.2H518.2z"/>
<polygon points="43.3,3.2 34.5,34 2.5,33.9 28.8,50.6 52.1,33.6 43.4,3.2 "/>
<polygon points="52.6,34 18.6,80.8 43.4,61.2 68.6,80.8 57.6,50.8 84.2,33.9 "/>
</svg>
