<svg id="Layer_1" xmlns="http://www.w3.org/2000/svg" xmlns:xlink="http://www.w3.org/1999/xlink" viewBox="0 0 550 100" style="enable-background:new 0 0 550 100;"><style>.st0{fill:#000000;}</style><path class="st0" d="M1e2 69.3l12.3-4.7c2.5 6.1 6.6 9.8 15.2 9.8 6.2.0 10.2-2.6 10.2-6.7.0-5.8-6.9-7.1-14.5-9-9.7-2.4-20.9-5.7-20.9-19.5.0-10.7 9.2-18.2 24.4-18.2 13.3.0 21.1 5.9 24.6 15.5l-13.1 4c-1.8-5.2-5.9-7.6-11.7-7.6-5.2.0-8.7 2.2-8.7 5.9.0 5.6 6.1 6.6 14.8 8.7 10.5 2.5 20.3 6.3 20.3 19.5.0 11.1-8.2 19.2-25.1 19.2C111 86 103.7 78.8 1e2 69.3z"/><path class="st0" d="M158.3 70.8V48.1h-5.5v-9.9h5.6l.9-14.4h13.2v14.4h9.6v9.9h-9.6v20.3c0 3.7 1.5 5.8 5 6.2 1.8.2 3.6.2 5.6.0v10.5c-2.3.3-5.6.6-8.5.6C163.9 85.7 158.3 80.7 158.3 70.8z"/><path class="st0" d="M184.3 72.8c0-10.4 9.3-15.6 25.7-17.2 1.8-.2 3.7-.4 5.7-.5.0-.5-.1-1.9-.1-2.3-.3-3.7-2.5-5.9-7.6-5.9-5.5.0-8.1 1.9-9.1 5.9l-13.4-1.2c2.3-9.3 10.1-14.2 23.9-14.2 15.8.0 20.3 6.8 20.3 16.9v21.6c0 2.7.2 7.4 1 9.2h-14c-.6-.9-.8-3.4-.8-6-4.1 4.2-9 6.6-17.3 6.6C190.1 85.6 184.3 80.7 184.3 72.8zM215.7 70.7v-8.2c-1.8.1-3.5.3-5 .6-7.2 1.2-11.2 4-11.2 8.4.0 3.5 2.3 5.1 6 5.1C210.2 76.6 213.7 73.7 215.7 70.7z"/><path class="st0" d="M235 38.2h14V48c2.2-5.6 7.7-10.7 14.6-10.7 1.4.0 2.6.1 3.4.3v11.8c-.9-.2-3-.3-4.2-.3-5.6.0-10.3 2.8-12.9 7.8v28H235V38.2z"/><path class="st0" d="M272.3 34H256V22.1h47.4V34h-16.2v51.1h-14.9V34z"/><path class="st0" d="M292.8 38.2h14V48c2.2-5.6 7.7-10.7 14.6-10.7 1.4.0 2.6.1 3.4.3v11.8c-.9-.2-3-.3-4.2-.3-5.6.0-10.3 2.8-12.9 7.8v28h-14.8V38.2z"/><path class="st0" d="M330.1 22.1H345v12.4h-14.9V22.1zM330.2 38.2h14.7V85h-14.7V38.2z"/><path class="st0" d="M361.5 78.2l-2.1 6.9h-8.9v-63H365v23.3c2.6-4.1 7-8 14.3-8 10.8.0 16.6 8.2 16.6 24.2.0 16.1-7.7 24.2-18.9 24.2C369.3 85.7 365.1 82.9 361.5 78.2zM380.8 62c0-9.9-2.1-14.6-7.7-14.6-4.2.0-6.9 2.5-7.9 7v12.3c0 6.8 2.9 11.1 7.8 11.1C378.7 77.8 380.8 72.6 380.8 62z"/><path class="st0" d="M398.6 70.9V38.2h14.7v31.9c0 4.4 1.9 6.1 5.8 6.1 3.5.0 6-2.4 7.6-5.5V38.2h14.7V85h-14.2l.1-6.7c-3.2 5-8.3 7.5-15 7.5C404.3 85.8 398.6 81.3 398.6 70.9z"/><path class="st0" d="M446.1 38.2h14.1V46c2.7-3.9 7.2-8.6 15.1-8.6 9.6.0 13.5 5.8 13.5 14.7v33h-14.6V52.6c0-2.9-1.5-5.1-5.1-5.1-3.9.0-6.4 2.6-8.3 5.5v32.1h-14.6V38.2z"/><path class="st0" d="M491.4 62.3c0-15.1 11.1-24.9 24.2-24.9 14.6.0 23.2 9.6 23.6 24.2.0 1 0 1.8-.1 2.8h-32.4c.2 8.4 4.5 12.1 10.3 12.1 4.7.0 7.7-2.4 9.4-7l12.2 1.6c-3.1 8.9-10.9 14.7-22.9 14.7C501.6 85.8 491.4 76.6 491.4 62.3zM524.4 56.7c-.5-6.3-3.2-10.2-8.7-10.2-4.7.0-8.5 3.8-8.9 10.2H524.4z"/><path class="st0" d="M49.5 7.5 40.7 38.3 8.7 38.2 35 54.9 58.3 37.9 49.6 7.5z"/><path class="st0" d="M58.8 38.3l-34 46.8L49.6 65.5 74.8 85.1 63.8 55.1 90.4 38.2z"/></svg>
